<mxfile host="65bd71144e">
    <diagram id="54xkhB815Is1ulYg2r5x" name="Page-1">
        <mxGraphModel dx="104" dy="631" grid="1" gridSize="10" guides="1" tooltips="1" connect="1" arrows="1" fold="1" page="1" pageScale="1" pageWidth="850" pageHeight="1100" math="0" shadow="0">
            <root>
                <mxCell id="0"/>
                <mxCell id="1" parent="0"/>
                <mxCell id="4" value="" style="edgeStyle=none;html=1;" edge="1" parent="1" source="2" target="3">
                    <mxGeometry relative="1" as="geometry"/>
                </mxCell>
                <mxCell id="2" value="START" style="ellipse;whiteSpace=wrap;html=1;" vertex="1" parent="1">
                    <mxGeometry x="1203" y="60" width="143.5" height="80" as="geometry"/>
                </mxCell>
                <mxCell id="6" value="" style="edgeStyle=none;html=1;" edge="1" parent="1" source="3">
                    <mxGeometry relative="1" as="geometry">
                        <mxPoint x="1275.5000000000002" y="320" as="targetPoint"/>
                    </mxGeometry>
                </mxCell>
                <mxCell id="3" value="User inputs a natural number greater than 1&lt;div&gt;for the variable &quot;num&quot;&lt;/div&gt;" style="shape=parallelogram;perimeter=parallelogramPerimeter;whiteSpace=wrap;html=1;fixedSize=1;" vertex="1" parent="1">
                    <mxGeometry x="1137" y="210" width="277" height="60" as="geometry"/>
                </mxCell>
                <mxCell id="61" value="" style="edgeStyle=none;html=1;" edge="1" parent="1" source="26" target="60">
                    <mxGeometry relative="1" as="geometry"/>
                </mxCell>
                <mxCell id="26" value="int n = 2" style="whiteSpace=wrap;html=1;" vertex="1" parent="1">
                    <mxGeometry x="1214.62" y="410" width="120" height="30" as="geometry"/>
                </mxCell>
                <mxCell id="28" value="" style="edgeStyle=none;html=1;" edge="1" parent="1" source="27" target="26">
                    <mxGeometry relative="1" as="geometry"/>
                </mxCell>
                <mxCell id="27" value="int halfOfNum = number / 2" style="whiteSpace=wrap;html=1;" vertex="1" parent="1">
                    <mxGeometry x="1185.5" y="320" width="180" height="60" as="geometry"/>
                </mxCell>
                <mxCell id="47" value="" style="edgeStyle=none;html=1;" edge="1" parent="1" target="45">
                    <mxGeometry relative="1" as="geometry">
                        <mxPoint x="1275.5000000000002" y="640" as="sourcePoint"/>
                    </mxGeometry>
                </mxCell>
                <mxCell id="38" value="True" style="edgeStyle=none;html=1;" edge="1" parent="1" source="33" target="37">
                    <mxGeometry relative="1" as="geometry"/>
                </mxCell>
                <mxCell id="50" value="False" style="edgeStyle=none;html=1;" edge="1" parent="1" source="33" target="49">
                    <mxGeometry relative="1" as="geometry"/>
                </mxCell>
                <mxCell id="33" value="num % n == 0" style="rhombus;whiteSpace=wrap;html=1;" vertex="1" parent="1">
                    <mxGeometry x="1208.25" y="780" width="134.5" height="90" as="geometry"/>
                </mxCell>
                <mxCell id="64" value="" style="edgeStyle=none;html=1;" edge="1" parent="1" source="37" target="63">
                    <mxGeometry relative="1" as="geometry"/>
                </mxCell>
                <mxCell id="37" value="res = false" style="whiteSpace=wrap;html=1;" vertex="1" parent="1">
                    <mxGeometry x="1017" y="807.5" width="120" height="35" as="geometry"/>
                </mxCell>
                <mxCell id="43" value="Return String.format(&quot;%d is not prime!&quot;, num)" style="shape=document;whiteSpace=wrap;html=1;boundedLbl=1;" vertex="1" parent="1">
                    <mxGeometry x="937" y="950" width="280" height="80" as="geometry"/>
                </mxCell>
                <mxCell id="48" value="" style="edgeStyle=none;html=1;" edge="1" parent="1" source="45" target="33">
                    <mxGeometry relative="1" as="geometry"/>
                </mxCell>
                <mxCell id="45" value="Print &quot;Checking divisor: n&quot;" style="whiteSpace=wrap;html=1;" vertex="1" parent="1">
                    <mxGeometry x="1215.5" y="690" width="120" height="60" as="geometry"/>
                </mxCell>
                <mxCell id="49" value="n++" style="whiteSpace=wrap;html=1;" vertex="1" parent="1">
                    <mxGeometry x="1430" y="812.5" width="40" height="25" as="geometry"/>
                </mxCell>
                <mxCell id="53" value="" style="endArrow=classic;html=1;exitX=1;exitY=0.5;exitDx=0;exitDy=0;" edge="1" parent="1" source="49">
                    <mxGeometry width="50" height="50" relative="1" as="geometry">
                        <mxPoint x="1454" y="825" as="sourcePoint"/>
                        <mxPoint x="1280" y="540" as="targetPoint"/>
                        <Array as="points">
                            <mxPoint x="1520" y="825"/>
                            <mxPoint x="1520" y="540"/>
                        </Array>
                    </mxGeometry>
                </mxCell>
                <mxCell id="57" value="False" style="edgeStyle=none;html=1;" edge="1" parent="1" source="55" target="56">
                    <mxGeometry relative="1" as="geometry"/>
                </mxCell>
                <mxCell id="55" value="&lt;span style=&quot;background-color: transparent;&quot;&gt;n &amp;lt;= halfOfNum&lt;/span&gt;" style="rhombus;whiteSpace=wrap;html=1;" vertex="1" parent="1">
                    <mxGeometry x="1186" y="580" width="177.25" height="70" as="geometry"/>
                </mxCell>
                <mxCell id="56" value="Return String.format(&quot;%d is prime!&quot;, num)" style="shape=document;whiteSpace=wrap;html=1;boundedLbl=1;" vertex="1" parent="1">
                    <mxGeometry x="880" y="575" width="198.13" height="80" as="geometry"/>
                </mxCell>
                <mxCell id="58" value="True" style="text;html=1;align=center;verticalAlign=middle;whiteSpace=wrap;rounded=0;rotation=0;" vertex="1" parent="1">
                    <mxGeometry x="1230" y="650" width="60" height="30" as="geometry"/>
                </mxCell>
                <mxCell id="62" value="" style="edgeStyle=none;html=1;" edge="1" parent="1" source="60" target="55">
                    <mxGeometry relative="1" as="geometry"/>
                </mxCell>
                <mxCell id="60" value="String res = true" style="whiteSpace=wrap;html=1;" vertex="1" parent="1">
                    <mxGeometry x="1215" y="480" width="120" height="25" as="geometry"/>
                </mxCell>
                <mxCell id="65" value="" style="edgeStyle=none;html=1;" edge="1" parent="1" source="63" target="43">
                    <mxGeometry relative="1" as="geometry"/>
                </mxCell>
                <mxCell id="63" value="Exit the loop" style="whiteSpace=wrap;html=1;" vertex="1" parent="1">
                    <mxGeometry x="1017" y="880" width="120" height="30" as="geometry"/>
                </mxCell>
                <mxCell id="66" value="Back to the start of the loop..." style="text;html=1;align=center;verticalAlign=middle;whiteSpace=wrap;rounded=0;" vertex="1" parent="1">
                    <mxGeometry x="1530" y="625" width="60" height="105" as="geometry"/>
                </mxCell>
            </root>
        </mxGraphModel>
    </diagram>
</mxfile>